<?xml version="1.0" standalone="no"?>
<!DOCTYPE svg PUBLIC "-//W3C//DTD SVG 20010904//EN"
 "http://www.w3.org/TR/2001/REC-SVG-20010904/DTD/svg10.dtd">
<svg version="1.0" xmlns="http://www.w3.org/2000/svg"
 width="100.000000pt" height="50.000000pt" viewBox="0 0 252.000000 66.000000"
 preserveAspectRatio="xMidYMid meet">

<g transform="translate(0.000000,66.000000) scale(0.100000,-0.100000)"
fill="#702DDA" stroke="none">
<path d="M177 653 c-2 -5 -7 -26 -11 -48 -4 -22 -9 -48 -12 -57 -5 -17 5 -18
120 -18 69 0 126 -2 126 -3 0 -17 -61 -298 -69 -319 -18 -49 -46 -68 -99 -68
-47 0 -90 20 -115 53 -11 15 -17 11 -61 -30 -55 -53 -55 -58 12 -110 102 -78
283 -61 362 35 40 48 53 91 100 327 22 110 42 210 45 223 l5 22 -199 0 c-110
0 -202 -3 -204 -7z"/>
<path d="M1100 658 c0 -5 -118 -597 -125 -627 l-6 -24 148 6 c168 5 217 18
282 74 23 19 55 58 71 85 l28 50 12 -58 c17 -83 71 -137 154 -154 79 -16 219
6 269 43 18 12 18 15 -4 60 -17 35 -27 46 -39 41 -56 -24 -90 -33 -128 -34
-35 0 -49 6 -73 29 -56 57 -47 61 131 61 180 0 161 -9 178 89 7 41 9 33 30
-100 35 -214 19 -190 125 -187 l91 3 133 240 c73 132 133 243 133 248 0 4 -33
7 -73 7 l-73 0 -94 -190 c-51 -105 -95 -189 -97 -187 -2 3 -10 67 -18 143 -8
77 -17 160 -21 187 l-6 47 -75 0 -76 0 7 -42 c4 -24 9 -61 11 -83 4 -34 3 -36
-3 -10 -21 75 -68 119 -147 135 -109 23 -228 -27 -291 -122 l-32 -47 0 68 c-1
39 -8 86 -18 110 -19 49 -78 102 -131 120 -36 12 -273 29 -273 19z m225 -152
c79 -79 38 -298 -65 -351 -16 -8 -48 -15 -70 -15 -35 0 -41 3 -36 18 2 9 19
89 36 177 17 88 34 168 36 178 8 27 69 23 99 -7z m507 -123 c8 -10 18 -30 22
-45 l6 -28 -90 0 c-49 0 -90 3 -90 6 0 17 25 47 53 64 40 25 79 25 99 3z"/>
<path d="M825 506 c-24 -9 -61 -38 -94 -73 l-54 -57 7 67 7 67 -64 0 -63 0
-47 -242 c-26 -134 -47 -246 -47 -250 0 -5 34 -8 75 -8 69 0 75 2 80 22 3 13
13 62 24 110 32 150 127 247 230 235 l48 -6 26 62 c14 34 22 65 19 69 -15 15
-108 18 -147 4z"/>
</g>
</svg>
